/vscmnt/brussel_pixiu_data/_data_brussel/112/vsc11236/PredSimResults/SUBJ04opt3D/expIG/worker_01.mot
version=1
nRows=11
nColumns=50
inDegrees=yes
endheader
                time	         pelvis_tilt	         pelvis_list	     pelvis_rotation	           pelvis_tx	           pelvis_ty	           pelvis_tz	       hip_flexion_r	     hip_adduction_r	      hip_rotation_r	        knee_angle_r	       ankle_angle_r	         mtp_angle_r	       hip_flexion_l	     hip_adduction_l	      hip_rotation_l	        knee_angle_l	       ankle_angle_l	         mtp_angle_l	    lumbar_extension	      lumbar_bending	     lumbar_rotation	 ercspn_r/activation	 intobl_r/activation	 extobl_r/activation	    abd_r/activation	    add_r/activation	hamstrings_r/activation	bifemsh_r/activation	glut_max_r/activation	iliopsoas_r/activation	rect_fem_r/activation	  vasti_r/activation	gastroc_r/activation	 soleus_r/activation	tib_ant_r/activation	 ercspn_l/activation	 intobl_l/activation	 extobl_l/activation	    abd_l/activation	    add_l/activation	hamstrings_l/activation	bifemsh_l/activation	glut_max_l/activation	iliopsoas_l/activation	rect_fem_l/activation	  vasti_l/activation	gastroc_l/activation	 soleus_l/activation	tib_ant_l/activation	
          1.95084941	         -2.36858398	          7.15339587	          6.17652198	          1.17050965	          0.87684719	          0.00033112	         32.16987618	         -7.22231490	         -1.75939062	        -12.63967060	          0.42686198	          0.22210271	        -11.01162357	          7.18039395	        -13.23393115	         -5.84491309	         13.61780004	         15.78174147	        -15.17237708	        -18.90544198	         -3.88457448	          0.00999999	          0.07121937	          0.06754182	          0.00999999	          0.08580587	          0.03303464	          0.14930520	          0.04842596	          0.15166325	          0.08647800	          0.02438325	          0.02797018	          0.01325142	          0.26944483	          0.01325140	          0.00999999	          0.01499741	          0.06300336	          0.01000000	          0.01376646	          0.15979645	          0.01753781	          0.05433824	          0.00999999	          0.00999999	          0.19128862	          0.16041383	          0.01325140	
          1.97035791	         -2.57861004	          7.05844015	          5.41729273	          1.18508866	          0.87442729	          0.00205240	         31.81912590	         -6.74597677	         -1.95097270	        -13.10938696	          0.05998484	          0.21505553	        -11.49143436	          7.04323461	        -14.39424839	         -6.35731597	         13.54465313	         17.11638939	        -14.72590333	        -17.90904593	         -4.36942129	          0.00999999	          0.06641229	          0.05096951	          0.04126370	          0.07464282	          0.04111601	          0.11267113	          0.03654399	          0.11445060	          0.06525944	          0.01840049	          0.02110732	          0.01000000	          0.29728972	          0.00999999	          0.00999999	          0.01131759	          0.04754462	          0.00999999	          0.01325141	          0.12058821	          0.01325140	          0.04100561	          0.00999999	          0.00999999	          0.18482335	          0.17094465	          0.00999999	
          1.98986640	         -2.78165018	          6.92391011	          4.60589363	          1.20007125	          0.87267205	          0.00380897	         31.55715872	         -6.31636238	         -2.28525687	        -13.69148107	         -0.37998665	          0.20091298	        -11.86156026	          6.85055674	        -15.62020689	         -7.09825402	         13.23217830	         18.58653247	        -14.24085421	        -16.80696783	         -4.85351478	          0.00999999	          0.05011713	          0.03846344	          0.06530346	          0.08974185	          0.04272713	          0.08502573	          0.02757742	          0.08636858	          0.04924715	          0.04502597	          0.01592835	          0.00999999	          0.31881809	          0.01736360	          0.00999999	          0.00999999	          0.03587890	          0.00999999	          0.01000000	          0.09100025	          0.00999999	          0.03255602	          0.03150043	          0.00999999	          0.15901041	          0.16925825	          0.00999999	
          2.00937489	         -2.98077220	          6.77694470	          3.73992153	          1.21520320	          0.87182596	          0.00566016	         31.40843911	         -5.90679720	         -2.74278759	        -14.48303257	         -0.69778658	          0.18574063	        -12.06342780	          6.61075607	        -16.92116159	         -8.13357057	         12.61324018	         20.17819924	        -13.75355962	        -15.64543102	         -5.33772086	          0.00999999	          0.03782021	          0.02902591	          0.07598246	          0.07980980	          0.04659959	          0.06416351	          0.02081092	          0.06517687	          0.03716369	          0.08287679	          0.01202011	          0.00999999	          0.32804181	          0.02949520	          0.00999999	          0.00999999	          0.02707552	          0.00999999	          0.01000000	          0.06867209	          0.01416529	          0.02456795	          0.02377137	          0.02260707	          0.11999504	          0.15259042	          0.00999999	
          2.02888339	         -3.17839503	          6.62562469	          2.82703814	          1.23039487	          0.87200850	          0.00763027	         31.24552631	         -5.49137396	         -3.20673638	        -15.27319501	         -0.83425648	          0.17249786	        -12.07659829	          6.31373213	        -18.29455540	         -9.48297419	         11.65251397	         21.85562484	        -13.27370588	        -14.44888158	         -5.82133783	          0.01000000	          0.02854051	          0.02190401	          0.07987073	          0.06511141	          0.05219068	          0.04842011	          0.03958162	          0.04918484	          0.02804507	          0.10906605	          0.00999999	          0.00999999	          0.32576915	          0.05084256	          0.00999999	          0.00999999	          0.02043217	          0.01000000	          0.01000003	          0.05182246	          0.02327833	          0.01853987	          0.01793874	          0.03423874	          0.09055262	          0.12569590	          0.00999999	
          2.04839188	         -3.37497404	          6.48240939	          1.87501569	          1.24561783	          0.87321623	          0.00974056	         30.95341756	         -5.05500088	         -3.57583543	        -15.86497426	         -0.83380639	          0.16539880	        -11.89803329	          5.95446517	        -19.72915179	        -11.14437966	         10.32433506	         23.58342961	        -12.80023487	        -13.24669108	         -6.30483667	          0.01598744	          0.02153770	          0.01652956	          0.08875095	          0.06500395	          0.05865752	          0.03653958	          0.04612841	          0.03711667	          0.02116383	          0.11448139	          0.00999999	          0.00999999	          0.31651088	          0.07046169	          0.00999999	          0.00999999	          0.01541886	          0.01000001	          0.01378046	          0.03910711	          0.03116266	          0.01399086	          0.01353723	          0.03967222	          0.06833430	          0.09485469	          0.00999999	
          2.06790038	         -3.56795732	          6.35920141	          0.89288471	          1.26088812	          0.87526927	          0.01199508	         30.48158153	         -4.59405282	         -3.77052857	        -16.17865517	         -0.75357186	          0.16701288	        -11.53507586	          5.52711856	        -21.19863803	        -13.11732187	          8.66424546	         25.29204258	        -12.32503966	        -12.06170396	         -6.78593038	          0.01894970	          0.01625313	          0.01247381	          0.10275841	          0.08204404	          0.06621490	          0.02757409	          0.04456638	          0.02800959	          0.01597100	          0.10617608	          0.00999999	          0.00999999	          0.30421053	          0.08532773	          0.00999999	          0.00999999	          0.01163563	          0.01755999	          0.02087994	          0.02951165	          0.02819331	          0.01055801	          0.01021568	          0.04855728	          0.05156754	          0.07158080	          0.00999999	
          2.08740887	         -3.75341254	          6.26073130	         -0.10920564	          1.27623059	          0.87791530	          0.01438615	         29.83963948	         -4.10834544	         -3.73494801	        -16.24393333	         -0.60439770	          0.18552849	        -11.02245597	          5.02657317	        -22.64277334	        -15.35394877	          6.73959292	         26.85609682	        -11.83968744	        -10.90431569	         -7.25974595	          0.01895911	          0.01226521	          0.00999999	          0.11598379	          0.10030771	          0.07417135	          0.02080841	          0.04430439	          0.02113705	          0.01205229	          0.09518431	          0.00999999	          0.00999999	          0.28787790	          0.09783618	          0.00999999	          0.00999999	          0.00999999	          0.01325141	          0.03923663	          0.02227056	          0.02127570	          0.00999999	          0.00999999	          0.05682478	          0.03891474	          0.05401747	          0.00999999	
          2.10691736	         -3.92727471	          6.18394124	         -1.12161500	          1.29165197	          0.88092412	          0.01689536	         29.05582544	         -3.60259878	         -3.45626793	        -16.11136585	         -0.42599118	          0.23668336	        -10.40845697	          4.45307349	        -24.00748366	        -17.77838543	          4.63498494	         28.11585542	        -11.34000353	         -9.77414435	         -7.71847907	          0.01731271	          0.00999999	          0.00999999	          0.12700827	          0.11479447	          0.08087816	          0.01570279	          0.03373108	          0.01595079	          0.00999999	          0.08917151	          0.00999999	          0.00999999	          0.27146518	          0.10499527	          0.01337104	          0.00999999	          0.00999999	          0.01000000	          0.04058821	          0.01680618	          0.01605542	          0.00999999	          0.00999999	          0.05612391	          0.02936648	          0.04076355	          0.00999999	
          2.12642586	         -4.08555015	          6.12873042	         -2.13637084	          1.30710123	          0.88409558	          0.01949956	         28.15453552	         -3.09816963	         -2.98610306	        -15.81599406	         -0.25771486	          0.32735375	         -9.69244645	          3.80027831	        -25.28124212	        -20.41152180	          2.47458281	         28.89284996	        -10.83260375	         -8.67423277	         -8.14822171	          0.02091849	          0.00999999	          0.00999999	          0.13541921	          0.12663276	          0.08582616	          0.01184989	          0.02545470	          0.01203704	          0.00999999	          0.08704227	          0.00999999	          0.00999999	          0.25721548	          0.10742745	          0.02358924	          0.00999999	          0.00999999	          0.00999999	          0.03449201	          0.01268255	          0.01211600	          0.00999999	          0.00999999	          0.04684860	          0.02216101	          0.03076166	          0.00999999	
          2.14593435	         -4.22455475	          6.10026515	         -3.14221601	          1.32245669	          0.88727030	          0.02218487	         27.15915798	         -2.62637262	         -2.41042856	        -15.38937555	         -0.09738898	          0.45835666	         -8.79770815	          3.03148702	        -26.46514197	        -23.42510669	          0.40745783	         28.98555144	        -10.33588177	         -7.61714401	         -8.53233861	          0.02568048	          0.00999999	          0.00999999	          0.14236256	          0.13306155	          0.08845664	          0.00999999	          0.01920904	          0.00999999	          0.00999999	          0.08665113	          0.00999999	          0.00999999	          0.24434006	          0.10671983	          0.03388930	          0.00999999	          0.00999999	          0.00999999	          0.03435145	          0.00999999	          0.00999999	          0.00999999	          0.00999999	          0.03535366	          0.01672351	          0.02326951	          0.00999999	
